# Tiled2Unity generated file. Do not modify by hand.
# Wavefront file for 'test_map_mesh_0009.obj'

# Vertices (Count = 100)
v -10.5 -4 0
v -11 -4 0
v -11 -3.5 0
v -10.5 -3.5 0
v -11 -4 0
v -11.5 -4 0
v -11.5 -3.5 0
v -11 -3.5 0
v -11.5 -4 0
v -12 -4 0
v -12 -3.5 0
v -11.5 -3.5 0
v -10 -4.5 0
v -10.5 -4.5 0
v -10.5 -4 0
v -10 -4 0
v -10.5 -4.5 0
v -11 -4.5 0
v -11 -4 0
v -10.5 -4 0
v -11 -4.5 0
v -11.5 -4.5 0
v -11.5 -4 0
v -11 -4 0
v -11.5 -4.5 0
v -12 -4.5 0
v -12 -4 0
v -11.5 -4 0
v -9 -5 0
v -9.5 -5 0
v -9.5 -4.5 0
v -9 -4.5 0
v -9.5 -5 0
v -10 -5 0
v -10 -4.5 0
v -9.5 -4.5 0
v -10 -5 0
v -10.5 -5 0
v -10.5 -4.5 0
v -10 -4.5 0
v -10.5 -5 0
v -11 -5 0
v -11 -4.5 0
v -10.5 -4.5 0
v -11 -5 0
v -11.5 -5 0
v -11.5 -4.5 0
v -11 -4.5 0
v -11.5 -5 0
v -12 -5 0
v -12 -4.5 0
v -11.5 -4.5 0
v -9 -5.5 0
v -9.5 -5.5 0
v -9.5 -5 0
v -9 -5 0
v -9.5 -5.5 0
v -10 -5.5 0
v -10 -5 0
v -9.5 -5 0
v -10 -5.5 0
v -10.5 -5.5 0
v -10.5 -5 0
v -10 -5 0
v -10.5 -5.5 0
v -11 -5.5 0
v -11 -5 0
v -10.5 -5 0
v -11 -5.5 0
v -11.5 -5.5 0
v -11.5 -5 0
v -11 -5 0
v -11.5 -5.5 0
v -12 -5.5 0
v -12 -5 0
v -11.5 -5 0
v -9.5 -6 0
v -10 -6 0
v -10 -5.5 0
v -9.5 -5.5 0
v -10 -6 0
v -10.5 -6 0
v -10.5 -5.5 0
v -10 -5.5 0
v -10.5 -6 0
v -11 -6 0
v -11 -5.5 0
v -10.5 -5.5 0
v -11 -6 0
v -11.5 -6 0
v -11.5 -5.5 0
v -11 -5.5 0
v -11.5 -6 0
v -12 -6 0
v -12 -5.5 0
v -11.5 -5.5 0
v 0 -10 0
v -0.5 -10 0
v -0.5 -9.5 0
v 0 -9.5 0

# Texture cooridinates (Count = 22)
vt 0.6 0.95
vt 0.7 0.95
vt 0.7 1
vt 0.6 1
vt 0 0.95
vt 0.1 0.95
vt 0.1 1
vt 0 1
vt 0.2 0.95
vt 0.2 1
vt 0.5 0.95
vt 0.5 1
vt 0.3 0.95
vt 0.4 0.95
vt 0.4 1
vt 0.3 1
vt 0.8 0.95
vt 0.9 0.95
vt 0.9 1
vt 0.8 1
vt 1 0.95
vt 1 1

# Normal
vn 0 0 -1

# Mesh description
g test_map_mesh_0009

# Faces
f 1/1/1 2/2/1 3/3/1 4/4/1
f 5/5/1 6/6/1 7/7/1 8/8/1
f 9/6/1 10/9/1 11/10/1 12/7/1
f 13/11/1 14/1/1 15/4/1 16/12/1
f 17/5/1 18/6/1 19/7/1 20/8/1
f 21/5/1 22/6/1 23/7/1 24/8/1
f 25/13/1 26/14/1 27/15/1 28/16/1
f 29/1/1 30/2/1 31/3/1 32/4/1
f 33/6/1 34/9/1 35/10/1 36/7/1
f 37/5/1 38/6/1 39/7/1 40/8/1
f 41/5/1 42/6/1 43/7/1 44/8/1
f 45/6/1 46/9/1 47/10/1 48/7/1
f 49/17/1 50/18/1 51/19/1 52/20/1
f 53/11/1 54/1/1 55/4/1 56/12/1
f 57/5/1 58/6/1 59/7/1 60/8/1
f 61/5/1 62/6/1 63/7/1 64/8/1
f 65/5/1 66/6/1 67/7/1 68/8/1
f 69/5/1 70/6/1 71/7/1 72/8/1
f 73/6/1 74/9/1 75/10/1 76/7/1
f 77/14/1 78/11/1 79/12/1 80/15/1
f 81/9/1 82/13/1 83/16/1 84/10/1
f 85/9/1 86/13/1 87/16/1 88/10/1
f 89/9/1 90/13/1 91/16/1 92/10/1
f 93/13/1 94/14/1 95/15/1 96/16/1
f 97/18/1 98/21/1 99/22/1 100/19/1

