# Tiled2Unity generated file. Do not modify by hand.
# Wavefront file for 'test_map_mesh_0005.obj'

# Vertices (Count = 76)
v -3.5 -1 0
v -4 -1 0
v -4 -0.5 0
v -3.5 -0.5 0
v -3 -1.5 0
v -3.5 -1.5 0
v -3.5 -1 0
v -3 -1 0
v -4 -2 0
v -4.5 -2 0
v -4.5 -1.5 0
v -4 -1.5 0
v -10.5 -2.5 0
v -11 -2.5 0
v -11 -2 0
v -10.5 -2 0
v -4 -3 0
v -4.5 -3 0
v -4.5 -2.5 0
v -4 -2.5 0
v -4.5 -3 0
v -5 -3 0
v -5 -2.5 0
v -4.5 -2.5 0
v -10.5 -3 0
v -11 -3 0
v -11 -2.5 0
v -10.5 -2.5 0
v -11.5 -3 0
v -12 -3 0
v -12 -2.5 0
v -11.5 -2.5 0
v -3.5 -3.5 0
v -4 -3.5 0
v -4 -3 0
v -3.5 -3 0
v -11 -3.5 0
v -11.5 -3.5 0
v -11.5 -3 0
v -11 -3 0
v -12 -3.5 0
v -12.5 -3.5 0
v -12.5 -3 0
v -12 -3 0
v -4.5 -4 0
v -5 -4 0
v -5 -3.5 0
v -4.5 -3.5 0
v -5 -4 0
v -5.5 -4 0
v -5.5 -3.5 0
v -5 -3.5 0
v -4.5 -4.5 0
v -5 -4.5 0
v -5 -4 0
v -4.5 -4 0
v -5 -4.5 0
v -5.5 -4.5 0
v -5.5 -4 0
v -5 -4 0
v -11 -4.5 0
v -11.5 -4.5 0
v -11.5 -4 0
v -11 -4 0
v -12.5 -4.5 0
v -13 -4.5 0
v -13 -4 0
v -12.5 -4 0
v -3.5 -5 0
v -4 -5 0
v -4 -4.5 0
v -3.5 -4.5 0
v -4 -5 0
v -4.5 -5 0
v -4.5 -4.5 0
v -4 -4.5 0

# Texture cooridinates (Count = 26)
vt 0 0.95
vt 0.1 0.95
vt 0.1 1
vt 0 1
vt 0 0.9
vt 0.1 0.9
vt 0 0.85
vt 0.1 0.85
vt 0.2 0.85
vt 0.2 0.9
vt 0.2 0.95
vt 0.3 0.95
vt 0.3 1
vt 0.2 1
vt 0 0.65
vt 0.1 0.65
vt 0.1 0.7
vt 0 0.7
vt 0.1 0.6
vt 0.2 0.6
vt 0.2 0.65
vt 0 0.55
vt 0.1 0.55
vt 0 0.6
vt 0.3 0.85
vt 0.3 0.9

# Normal
vn 0 0 -1

# Mesh description
g test_map_mesh_0005

# Faces
f 1/1/1 2/2/1 3/3/1 4/4/1
f 5/5/1 6/6/1 7/2/1 8/1/1
f 9/7/1 10/8/1 11/6/1 12/5/1
f 13/8/1 14/9/1 15/10/1 16/6/1
f 17/11/1 18/12/1 19/13/1 20/14/1
f 21/15/1 22/16/1 23/17/1 24/18/1
f 25/6/1 26/10/1 27/11/1 28/2/1
f 29/8/1 30/9/1 31/10/1 32/6/1
f 33/7/1 34/8/1 35/6/1 36/5/1
f 37/19/1 38/20/1 39/21/1 40/16/1
f 41/6/1 42/10/1 43/11/1 44/2/1
f 45/11/1 46/12/1 47/13/1 48/14/1
f 49/22/1 50/23/1 51/19/1 52/24/1
f 53/9/1 54/25/1 55/26/1 56/10/1
f 57/10/1 58/26/1 59/12/1 60/11/1
f 61/2/1 62/11/1 63/14/1 64/3/1
f 65/2/1 66/11/1 67/14/1 68/3/1
f 69/9/1 70/25/1 71/26/1 72/10/1
f 73/7/1 74/8/1 75/6/1 76/5/1

