# Tiled2Unity generated file. Do not modify by hand.
# Wavefront file for 'test_map_mesh_0010.obj'

# Vertices (Count = 576)
v -2.5 -1 0
v -3 -1 0
v -3 -0.5 0
v -2.5 -0.5 0
v -3 -1 0
v -3.5 -1 0
v -3.5 -0.5 0
v -3 -0.5 0
v -3.5 -1 0
v -4 -1 0
v -4 -0.5 0
v -3.5 -0.5 0
v -4 -1 0
v -4.5 -1 0
v -4.5 -0.5 0
v -4 -0.5 0
v -4.5 -1 0
v -5 -1 0
v -5 -0.5 0
v -4.5 -0.5 0
v -5 -1 0
v -5.5 -1 0
v -5.5 -0.5 0
v -5 -0.5 0
v -5.5 -1 0
v -6 -1 0
v -6 -0.5 0
v -5.5 -0.5 0
v -6 -1 0
v -6.5 -1 0
v -6.5 -0.5 0
v -6 -0.5 0
v -6.5 -1 0
v -7 -1 0
v -7 -0.5 0
v -6.5 -0.5 0
v -2.5 -1.5 0
v -3 -1.5 0
v -3 -1 0
v -2.5 -1 0
v -3 -1.5 0
v -3.5 -1.5 0
v -3.5 -1 0
v -3 -1 0
v -3.5 -1.5 0
v -4 -1.5 0
v -4 -1 0
v -3.5 -1 0
v -4 -1.5 0
v -4.5 -1.5 0
v -4.5 -1 0
v -4 -1 0
v -4.5 -1.5 0
v -5 -1.5 0
v -5 -1 0
v -4.5 -1 0
v -5 -1.5 0
v -5.5 -1.5 0
v -5.5 -1 0
v -5 -1 0
v -5.5 -1.5 0
v -6 -1.5 0
v -6 -1 0
v -5.5 -1 0
v -6 -1.5 0
v -6.5 -1.5 0
v -6.5 -1 0
v -6 -1 0
v -6.5 -1.5 0
v -7 -1.5 0
v -7 -1 0
v -6.5 -1 0
v -9 -1.5 0
v -9.5 -1.5 0
v -9.5 -1 0
v -9 -1 0
v -9.5 -1.5 0
v -10 -1.5 0
v -10 -1 0
v -9.5 -1 0
v -10 -1.5 0
v -10.5 -1.5 0
v -10.5 -1 0
v -10 -1 0
v -10.5 -1.5 0
v -11 -1.5 0
v -11 -1 0
v -10.5 -1 0
v -11 -1.5 0
v -11.5 -1.5 0
v -11.5 -1 0
v -11 -1 0
v -11.5 -1.5 0
v -12 -1.5 0
v -12 -1 0
v -11.5 -1 0
v -12 -1.5 0
v -12.5 -1.5 0
v -12.5 -1 0
v -12 -1 0
v -12.5 -1.5 0
v -13 -1.5 0
v -13 -1 0
v -12.5 -1 0
v -13 -1.5 0
v -13.5 -1.5 0
v -13.5 -1 0
v -13 -1 0
v -2.5 -2 0
v -3 -2 0
v -3 -1.5 0
v -2.5 -1.5 0
v -3 -2 0
v -3.5 -2 0
v -3.5 -1.5 0
v -3 -1.5 0
v -3.5 -2 0
v -4 -2 0
v -4 -1.5 0
v -3.5 -1.5 0
v -4 -2 0
v -4.5 -2 0
v -4.5 -1.5 0
v -4 -1.5 0
v -4.5 -2 0
v -5 -2 0
v -5 -1.5 0
v -4.5 -1.5 0
v -5 -2 0
v -5.5 -2 0
v -5.5 -1.5 0
v -5 -1.5 0
v -5.5 -2 0
v -6 -2 0
v -6 -1.5 0
v -5.5 -1.5 0
v -6 -2 0
v -6.5 -2 0
v -6.5 -1.5 0
v -6 -1.5 0
v -6.5 -2 0
v -7 -2 0
v -7 -1.5 0
v -6.5 -1.5 0
v -9 -2 0
v -9.5 -2 0
v -9.5 -1.5 0
v -9 -1.5 0
v -9.5 -2 0
v -10 -2 0
v -10 -1.5 0
v -9.5 -1.5 0
v -10 -2 0
v -10.5 -2 0
v -10.5 -1.5 0
v -10 -1.5 0
v -10.5 -2 0
v -11 -2 0
v -11 -1.5 0
v -10.5 -1.5 0
v -11 -2 0
v -11.5 -2 0
v -11.5 -1.5 0
v -11 -1.5 0
v -11.5 -2 0
v -12 -2 0
v -12 -1.5 0
v -11.5 -1.5 0
v -12 -2 0
v -12.5 -2 0
v -12.5 -1.5 0
v -12 -1.5 0
v -12.5 -2 0
v -13 -2 0
v -13 -1.5 0
v -12.5 -1.5 0
v -13 -2 0
v -13.5 -2 0
v -13.5 -1.5 0
v -13 -1.5 0
v -2.5 -2.5 0
v -3 -2.5 0
v -3 -2 0
v -2.5 -2 0
v -3 -2.5 0
v -3.5 -2.5 0
v -3.5 -2 0
v -3 -2 0
v -3.5 -2.5 0
v -4 -2.5 0
v -4 -2 0
v -3.5 -2 0
v -4 -2.5 0
v -4.5 -2.5 0
v -4.5 -2 0
v -4 -2 0
v -4.5 -2.5 0
v -5 -2.5 0
v -5 -2 0
v -4.5 -2 0
v -5 -2.5 0
v -5.5 -2.5 0
v -5.5 -2 0
v -5 -2 0
v -5.5 -2.5 0
v -6 -2.5 0
v -6 -2 0
v -5.5 -2 0
v -6 -2.5 0
v -6.5 -2.5 0
v -6.5 -2 0
v -6 -2 0
v -6.5 -2.5 0
v -7 -2.5 0
v -7 -2 0
v -6.5 -2 0
v -9 -2.5 0
v -9.5 -2.5 0
v -9.5 -2 0
v -9 -2 0
v -9.5 -2.5 0
v -10 -2.5 0
v -10 -2 0
v -9.5 -2 0
v -10 -2.5 0
v -10.5 -2.5 0
v -10.5 -2 0
v -10 -2 0
v -10.5 -2.5 0
v -11 -2.5 0
v -11 -2 0
v -10.5 -2 0
v -11 -2.5 0
v -11.5 -2.5 0
v -11.5 -2 0
v -11 -2 0
v -11.5 -2.5 0
v -12 -2.5 0
v -12 -2 0
v -11.5 -2 0
v -12 -2.5 0
v -12.5 -2.5 0
v -12.5 -2 0
v -12 -2 0
v -12.5 -2.5 0
v -13 -2.5 0
v -13 -2 0
v -12.5 -2 0
v -13 -2.5 0
v -13.5 -2.5 0
v -13.5 -2 0
v -13 -2 0
v -2.5 -3 0
v -3 -3 0
v -3 -2.5 0
v -2.5 -2.5 0
v -3 -3 0
v -3.5 -3 0
v -3.5 -2.5 0
v -3 -2.5 0
v -3.5 -3 0
v -4 -3 0
v -4 -2.5 0
v -3.5 -2.5 0
v -4 -3 0
v -4.5 -3 0
v -4.5 -2.5 0
v -4 -2.5 0
v -4.5 -3 0
v -5 -3 0
v -5 -2.5 0
v -4.5 -2.5 0
v -5 -3 0
v -5.5 -3 0
v -5.5 -2.5 0
v -5 -2.5 0
v -5.5 -3 0
v -6 -3 0
v -6 -2.5 0
v -5.5 -2.5 0
v -6 -3 0
v -6.5 -3 0
v -6.5 -2.5 0
v -6 -2.5 0
v -6.5 -3 0
v -7 -3 0
v -7 -2.5 0
v -6.5 -2.5 0
v -9 -3 0
v -9.5 -3 0
v -9.5 -2.5 0
v -9 -2.5 0
v -9.5 -3 0
v -10 -3 0
v -10 -2.5 0
v -9.5 -2.5 0
v -10 -3 0
v -10.5 -3 0
v -10.5 -2.5 0
v -10 -2.5 0
v -10.5 -3 0
v -11 -3 0
v -11 -2.5 0
v -10.5 -2.5 0
v -11 -3 0
v -11.5 -3 0
v -11.5 -2.5 0
v -11 -2.5 0
v -11.5 -3 0
v -12 -3 0
v -12 -2.5 0
v -11.5 -2.5 0
v -12 -3 0
v -12.5 -3 0
v -12.5 -2.5 0
v -12 -2.5 0
v -12.5 -3 0
v -13 -3 0
v -13 -2.5 0
v -12.5 -2.5 0
v -13 -3 0
v -13.5 -3 0
v -13.5 -2.5 0
v -13 -2.5 0
v -2.5 -3.5 0
v -3 -3.5 0
v -3 -3 0
v -2.5 -3 0
v -3 -3.5 0
v -3.5 -3.5 0
v -3.5 -3 0
v -3 -3 0
v -3.5 -3.5 0
v -4 -3.5 0
v -4 -3 0
v -3.5 -3 0
v -4 -3.5 0
v -4.5 -3.5 0
v -4.5 -3 0
v -4 -3 0
v -4.5 -3.5 0
v -5 -3.5 0
v -5 -3 0
v -4.5 -3 0
v -5 -3.5 0
v -5.5 -3.5 0
v -5.5 -3 0
v -5 -3 0
v -5.5 -3.5 0
v -6 -3.5 0
v -6 -3 0
v -5.5 -3 0
v -6 -3.5 0
v -6.5 -3.5 0
v -6.5 -3 0
v -6 -3 0
v -6.5 -3.5 0
v -7 -3.5 0
v -7 -3 0
v -6.5 -3 0
v -9 -3.5 0
v -9.5 -3.5 0
v -9.5 -3 0
v -9 -3 0
v -9.5 -3.5 0
v -10 -3.5 0
v -10 -3 0
v -9.5 -3 0
v -10 -3.5 0
v -10.5 -3.5 0
v -10.5 -3 0
v -10 -3 0
v -10.5 -3.5 0
v -11 -3.5 0
v -11 -3 0
v -10.5 -3 0
v -11 -3.5 0
v -11.5 -3.5 0
v -11.5 -3 0
v -11 -3 0
v -11.5 -3.5 0
v -12 -3.5 0
v -12 -3 0
v -11.5 -3 0
v -12 -3.5 0
v -12.5 -3.5 0
v -12.5 -3 0
v -12 -3 0
v -12.5 -3.5 0
v -13 -3.5 0
v -13 -3 0
v -12.5 -3 0
v -13 -3.5 0
v -13.5 -3.5 0
v -13.5 -3 0
v -13 -3 0
v -2.5 -4 0
v -3 -4 0
v -3 -3.5 0
v -2.5 -3.5 0
v -3 -4 0
v -3.5 -4 0
v -3.5 -3.5 0
v -3 -3.5 0
v -3.5 -4 0
v -4 -4 0
v -4 -3.5 0
v -3.5 -3.5 0
v -4 -4 0
v -4.5 -4 0
v -4.5 -3.5 0
v -4 -3.5 0
v -4.5 -4 0
v -5 -4 0
v -5 -3.5 0
v -4.5 -3.5 0
v -5 -4 0
v -5.5 -4 0
v -5.5 -3.5 0
v -5 -3.5 0
v -5.5 -4 0
v -6 -4 0
v -6 -3.5 0
v -5.5 -3.5 0
v -6 -4 0
v -6.5 -4 0
v -6.5 -3.5 0
v -6 -3.5 0
v -6.5 -4 0
v -7 -4 0
v -7 -3.5 0
v -6.5 -3.5 0
v -9 -4 0
v -9.5 -4 0
v -9.5 -3.5 0
v -9 -3.5 0
v -9.5 -4 0
v -10 -4 0
v -10 -3.5 0
v -9.5 -3.5 0
v -10 -4 0
v -10.5 -4 0
v -10.5 -3.5 0
v -10 -3.5 0
v -10.5 -4 0
v -11 -4 0
v -11 -3.5 0
v -10.5 -3.5 0
v -11 -4 0
v -11.5 -4 0
v -11.5 -3.5 0
v -11 -3.5 0
v -11.5 -4 0
v -12 -4 0
v -12 -3.5 0
v -11.5 -3.5 0
v -12 -4 0
v -12.5 -4 0
v -12.5 -3.5 0
v -12 -3.5 0
v -12.5 -4 0
v -13 -4 0
v -13 -3.5 0
v -12.5 -3.5 0
v -13 -4 0
v -13.5 -4 0
v -13.5 -3.5 0
v -13 -3.5 0
v -2.5 -4.5 0
v -3 -4.5 0
v -3 -4 0
v -2.5 -4 0
v -3 -4.5 0
v -3.5 -4.5 0
v -3.5 -4 0
v -3 -4 0
v -3.5 -4.5 0
v -4 -4.5 0
v -4 -4 0
v -3.5 -4 0
v -4 -4.5 0
v -4.5 -4.5 0
v -4.5 -4 0
v -4 -4 0
v -4.5 -4.5 0
v -5 -4.5 0
v -5 -4 0
v -4.5 -4 0
v -5 -4.5 0
v -5.5 -4.5 0
v -5.5 -4 0
v -5 -4 0
v -5.5 -4.5 0
v -6 -4.5 0
v -6 -4 0
v -5.5 -4 0
v -6 -4.5 0
v -6.5 -4.5 0
v -6.5 -4 0
v -6 -4 0
v -6.5 -4.5 0
v -7 -4.5 0
v -7 -4 0
v -6.5 -4 0
v -9 -4.5 0
v -9.5 -4.5 0
v -9.5 -4 0
v -9 -4 0
v -9.5 -4.5 0
v -10 -4.5 0
v -10 -4 0
v -9.5 -4 0
v -10 -4.5 0
v -10.5 -4.5 0
v -10.5 -4 0
v -10 -4 0
v -10.5 -4.5 0
v -11 -4.5 0
v -11 -4 0
v -10.5 -4 0
v -11 -4.5 0
v -11.5 -4.5 0
v -11.5 -4 0
v -11 -4 0
v -11.5 -4.5 0
v -12 -4.5 0
v -12 -4 0
v -11.5 -4 0
v -12 -4.5 0
v -12.5 -4.5 0
v -12.5 -4 0
v -12 -4 0
v -12.5 -4.5 0
v -13 -4.5 0
v -13 -4 0
v -12.5 -4 0
v -13 -4.5 0
v -13.5 -4.5 0
v -13.5 -4 0
v -13 -4 0
v -9 -5 0
v -9.5 -5 0
v -9.5 -4.5 0
v -9 -4.5 0
v -9.5 -5 0
v -10 -5 0
v -10 -4.5 0
v -9.5 -4.5 0
v -10 -5 0
v -10.5 -5 0
v -10.5 -4.5 0
v -10 -4.5 0
v -10.5 -5 0
v -11 -5 0
v -11 -4.5 0
v -10.5 -4.5 0
v -11 -5 0
v -11.5 -5 0
v -11.5 -4.5 0
v -11 -4.5 0
v -11.5 -5 0
v -12 -5 0
v -12 -4.5 0
v -11.5 -4.5 0
v -12 -5 0
v -12.5 -5 0
v -12.5 -4.5 0
v -12 -4.5 0
v -12.5 -5 0
v -13 -5 0
v -13 -4.5 0
v -12.5 -4.5 0
v -13 -5 0
v -13.5 -5 0
v -13.5 -4.5 0
v -13 -4.5 0

# Texture cooridinates (Count = 90)
vt 0 0.95
vt 0.1 0.95
vt 0.1 1
vt 0 1
vt 0.2 0.95
vt 0.2 1
vt 0.3 0.95
vt 0.3 1
vt 0.4 0.95
vt 0.4 1
vt 0.5 0.95
vt 0.5 1
vt 0.6 0.95
vt 0.6 1
vt 0.7 0.95
vt 0.7 1
vt 0.8 0.95
vt 0.8 1
vt 0.9 0.95
vt 0.9 1
vt 0 0.9
vt 0.1 0.9
vt 0.2 0.9
vt 0.3 0.9
vt 0.4 0.9
vt 0.5 0.9
vt 0.6 0.9
vt 0.7 0.9
vt 0.8 0.9
vt 0.9 0.9
vt 0 0.85
vt 0.1 0.85
vt 0.2 0.85
vt 0.3 0.85
vt 0.4 0.85
vt 0.5 0.85
vt 0.6 0.85
vt 0.7 0.85
vt 0.8 0.85
vt 0.9 0.85
vt 0 0.8
vt 0.1 0.8
vt 0.2 0.8
vt 0.3 0.8
vt 0.4 0.8
vt 0.5 0.8
vt 0.6 0.8
vt 0.7 0.8
vt 0.8 0.8
vt 0.9 0.8
vt 0 0.75
vt 0.1 0.75
vt 0.2 0.75
vt 0.3 0.75
vt 0.4 0.75
vt 0.5 0.75
vt 0.6 0.75
vt 0.7 0.75
vt 0.8 0.75
vt 0.9 0.75
vt 0 0.7
vt 0.1 0.7
vt 0.2 0.7
vt 0.3 0.7
vt 0.4 0.7
vt 0.5 0.7
vt 0.6 0.7
vt 0.7 0.7
vt 0.8 0.7
vt 0.9 0.7
vt 0 0.65
vt 0.1 0.65
vt 0.2 0.65
vt 0.3 0.65
vt 0.4 0.65
vt 0.5 0.65
vt 0.6 0.65
vt 0.7 0.65
vt 0.8 0.65
vt 0.9 0.65
vt 0 0.6
vt 0.1 0.6
vt 0.2 0.6
vt 0.3 0.6
vt 0.4 0.6
vt 0.5 0.6
vt 0.6 0.6
vt 0.7 0.6
vt 0.8 0.6
vt 0.9 0.6

# Normal
vn 0 0 -1

# Mesh description
g test_map_mesh_0010

# Faces
f 1/1/1 2/2/1 3/3/1 4/4/1
f 5/2/1 6/5/1 7/6/1 8/3/1
f 9/5/1 10/7/1 11/8/1 12/6/1
f 13/7/1 14/9/1 15/10/1 16/8/1
f 17/9/1 18/11/1 19/12/1 20/10/1
f 21/11/1 22/13/1 23/14/1 24/12/1
f 25/13/1 26/15/1 27/16/1 28/14/1
f 29/15/1 30/17/1 31/18/1 32/16/1
f 33/17/1 34/19/1 35/20/1 36/18/1
f 37/21/1 38/22/1 39/2/1 40/1/1
f 41/22/1 42/23/1 43/5/1 44/2/1
f 45/23/1 46/24/1 47/7/1 48/5/1
f 49/24/1 50/25/1 51/9/1 52/7/1
f 53/25/1 54/26/1 55/11/1 56/9/1
f 57/26/1 58/27/1 59/13/1 60/11/1
f 61/27/1 62/28/1 63/15/1 64/13/1
f 65/28/1 66/29/1 67/17/1 68/15/1
f 69/29/1 70/30/1 71/19/1 72/17/1
f 73/1/1 74/2/1 75/3/1 76/4/1
f 77/2/1 78/5/1 79/6/1 80/3/1
f 81/5/1 82/7/1 83/8/1 84/6/1
f 85/7/1 86/9/1 87/10/1 88/8/1
f 89/9/1 90/11/1 91/12/1 92/10/1
f 93/11/1 94/13/1 95/14/1 96/12/1
f 97/13/1 98/15/1 99/16/1 100/14/1
f 101/15/1 102/17/1 103/18/1 104/16/1
f 105/17/1 106/19/1 107/20/1 108/18/1
f 109/31/1 110/32/1 111/22/1 112/21/1
f 113/32/1 114/33/1 115/23/1 116/22/1
f 117/33/1 118/34/1 119/24/1 120/23/1
f 121/34/1 122/35/1 123/25/1 124/24/1
f 125/35/1 126/36/1 127/26/1 128/25/1
f 129/36/1 130/37/1 131/27/1 132/26/1
f 133/37/1 134/38/1 135/28/1 136/27/1
f 137/38/1 138/39/1 139/29/1 140/28/1
f 141/39/1 142/40/1 143/30/1 144/29/1
f 145/21/1 146/22/1 147/2/1 148/1/1
f 149/22/1 150/23/1 151/5/1 152/2/1
f 153/23/1 154/24/1 155/7/1 156/5/1
f 157/24/1 158/25/1 159/9/1 160/7/1
f 161/25/1 162/26/1 163/11/1 164/9/1
f 165/26/1 166/27/1 167/13/1 168/11/1
f 169/27/1 170/28/1 171/15/1 172/13/1
f 173/28/1 174/29/1 175/17/1 176/15/1
f 177/29/1 178/30/1 179/19/1 180/17/1
f 181/41/1 182/42/1 183/32/1 184/31/1
f 185/42/1 186/43/1 187/33/1 188/32/1
f 189/43/1 190/44/1 191/34/1 192/33/1
f 193/44/1 194/45/1 195/35/1 196/34/1
f 197/45/1 198/46/1 199/36/1 200/35/1
f 201/46/1 202/47/1 203/37/1 204/36/1
f 205/47/1 206/48/1 207/38/1 208/37/1
f 209/48/1 210/49/1 211/39/1 212/38/1
f 213/49/1 214/50/1 215/40/1 216/39/1
f 217/31/1 218/32/1 219/22/1 220/21/1
f 221/32/1 222/33/1 223/23/1 224/22/1
f 225/33/1 226/34/1 227/24/1 228/23/1
f 229/34/1 230/35/1 231/25/1 232/24/1
f 233/35/1 234/36/1 235/26/1 236/25/1
f 237/36/1 238/37/1 239/27/1 240/26/1
f 241/37/1 242/38/1 243/28/1 244/27/1
f 245/38/1 246/39/1 247/29/1 248/28/1
f 249/39/1 250/40/1 251/30/1 252/29/1
f 253/51/1 254/52/1 255/42/1 256/41/1
f 257/52/1 258/53/1 259/43/1 260/42/1
f 261/53/1 262/54/1 263/44/1 264/43/1
f 265/54/1 266/55/1 267/45/1 268/44/1
f 269/55/1 270/56/1 271/46/1 272/45/1
f 273/56/1 274/57/1 275/47/1 276/46/1
f 277/57/1 278/58/1 279/48/1 280/47/1
f 281/58/1 282/59/1 283/49/1 284/48/1
f 285/59/1 286/60/1 287/50/1 288/49/1
f 289/41/1 290/42/1 291/32/1 292/31/1
f 293/42/1 294/43/1 295/33/1 296/32/1
f 297/43/1 298/44/1 299/34/1 300/33/1
f 301/44/1 302/45/1 303/35/1 304/34/1
f 305/45/1 306/46/1 307/36/1 308/35/1
f 309/46/1 310/47/1 311/37/1 312/36/1
f 313/47/1 314/48/1 315/38/1 316/37/1
f 317/48/1 318/49/1 319/39/1 320/38/1
f 321/49/1 322/50/1 323/40/1 324/39/1
f 325/61/1 326/62/1 327/52/1 328/51/1
f 329/62/1 330/63/1 331/53/1 332/52/1
f 333/63/1 334/64/1 335/54/1 336/53/1
f 337/64/1 338/65/1 339/55/1 340/54/1
f 341/65/1 342/66/1 343/56/1 344/55/1
f 345/66/1 346/67/1 347/57/1 348/56/1
f 349/67/1 350/68/1 351/58/1 352/57/1
f 353/68/1 354/69/1 355/59/1 356/58/1
f 357/69/1 358/70/1 359/60/1 360/59/1
f 361/51/1 362/52/1 363/42/1 364/41/1
f 365/52/1 366/53/1 367/43/1 368/42/1
f 369/53/1 370/54/1 371/44/1 372/43/1
f 373/54/1 374/55/1 375/45/1 376/44/1
f 377/55/1 378/56/1 379/46/1 380/45/1
f 381/56/1 382/57/1 383/47/1 384/46/1
f 385/57/1 386/58/1 387/48/1 388/47/1
f 389/58/1 390/59/1 391/49/1 392/48/1
f 393/59/1 394/60/1 395/50/1 396/49/1
f 397/71/1 398/72/1 399/62/1 400/61/1
f 401/72/1 402/73/1 403/63/1 404/62/1
f 405/73/1 406/74/1 407/64/1 408/63/1
f 409/74/1 410/75/1 411/65/1 412/64/1
f 413/75/1 414/76/1 415/66/1 416/65/1
f 417/76/1 418/77/1 419/67/1 420/66/1
f 421/77/1 422/78/1 423/68/1 424/67/1
f 425/78/1 426/79/1 427/69/1 428/68/1
f 429/79/1 430/80/1 431/70/1 432/69/1
f 433/61/1 434/62/1 435/52/1 436/51/1
f 437/62/1 438/63/1 439/53/1 440/52/1
f 441/63/1 442/64/1 443/54/1 444/53/1
f 445/64/1 446/65/1 447/55/1 448/54/1
f 449/65/1 450/66/1 451/56/1 452/55/1
f 453/66/1 454/67/1 455/57/1 456/56/1
f 457/67/1 458/68/1 459/58/1 460/57/1
f 461/68/1 462/69/1 463/59/1 464/58/1
f 465/69/1 466/70/1 467/60/1 468/59/1
f 469/81/1 470/82/1 471/72/1 472/71/1
f 473/82/1 474/83/1 475/73/1 476/72/1
f 477/83/1 478/84/1 479/74/1 480/73/1
f 481/84/1 482/85/1 483/75/1 484/74/1
f 485/85/1 486/86/1 487/76/1 488/75/1
f 489/86/1 490/87/1 491/77/1 492/76/1
f 493/87/1 494/88/1 495/78/1 496/77/1
f 497/88/1 498/89/1 499/79/1 500/78/1
f 501/89/1 502/90/1 503/80/1 504/79/1
f 505/71/1 506/72/1 507/62/1 508/61/1
f 509/72/1 510/73/1 511/63/1 512/62/1
f 513/73/1 514/74/1 515/64/1 516/63/1
f 517/74/1 518/75/1 519/65/1 520/64/1
f 521/75/1 522/76/1 523/66/1 524/65/1
f 525/76/1 526/77/1 527/67/1 528/66/1
f 529/77/1 530/78/1 531/68/1 532/67/1
f 533/78/1 534/79/1 535/69/1 536/68/1
f 537/79/1 538/80/1 539/70/1 540/69/1
f 541/81/1 542/82/1 543/72/1 544/71/1
f 545/82/1 546/83/1 547/73/1 548/72/1
f 549/83/1 550/84/1 551/74/1 552/73/1
f 553/84/1 554/85/1 555/75/1 556/74/1
f 557/85/1 558/86/1 559/76/1 560/75/1
f 561/86/1 562/87/1 563/77/1 564/76/1
f 565/87/1 566/88/1 567/78/1 568/77/1
f 569/88/1 570/89/1 571/79/1 572/78/1
f 573/89/1 574/90/1 575/80/1 576/79/1

