# Tiled2Unity generated file. Do not modify by hand.
# Wavefront file for 'test_map_mesh_0003.obj'

# Vertices (Count = 12)
v -1 -7 0
v -2 -7 0
v -2 -6 0
v -1 -6 0
v -3 -7 0
v -4 -7 0
v -4 -6 0
v -3 -6 0
v -2 -8 0
v -3 -8 0
v -3 -7 0
v -2 -7 0

# Texture cooridinates (Count = 4)
vt 0 0.95
vt 0.1 0.95
vt 0.1 1
vt 0 1

# Normal
vn 0 0 -1

# Mesh description
g test_map_mesh_0003

# Faces
f 1/1/1 2/2/1 3/3/1 4/4/1
f 5/1/1 6/2/1 7/3/1 8/4/1
f 9/1/1 10/2/1 11/3/1 12/4/1

