# Tiled2Unity generated file. Do not modify by hand.
# Wavefront file for 'test_map_mesh_0004.obj'

# Vertices (Count = 144)
v -3 -1.5 0
v -3.5 -1.5 0
v -3.5 -1 0
v -3 -1 0
v -4 -1.5 0
v -4.5 -1.5 0
v -4.5 -1 0
v -4 -1 0
v -5 -1.5 0
v -5.5 -1.5 0
v -5.5 -1 0
v -5 -1 0
v -6 -1.5 0
v -6.5 -1.5 0
v -6.5 -1 0
v -6 -1 0
v -2.5 -2 0
v -3 -2 0
v -3 -1.5 0
v -2.5 -1.5 0
v -3.5 -2 0
v -4 -2 0
v -4 -1.5 0
v -3.5 -1.5 0
v -4 -2 0
v -4.5 -2 0
v -4.5 -1.5 0
v -4 -1.5 0
v -4.5 -2 0
v -5 -2 0
v -5 -1.5 0
v -4.5 -1.5 0
v -5 -2 0
v -5.5 -2 0
v -5.5 -1.5 0
v -5 -1.5 0
v -5.5 -2 0
v -6 -2 0
v -6 -1.5 0
v -5.5 -1.5 0
v -2 -2.5 0
v -2.5 -2.5 0
v -2.5 -2 0
v -2 -2 0
v -3 -2.5 0
v -3.5 -2.5 0
v -3.5 -2 0
v -3 -2 0
v -3.5 -2.5 0
v -4 -2.5 0
v -4 -2 0
v -3.5 -2 0
v -4 -2.5 0
v -4.5 -2.5 0
v -4.5 -2 0
v -4 -2 0
v -5 -2.5 0
v -5.5 -2.5 0
v -5.5 -2 0
v -5 -2 0
v -6 -2.5 0
v -6.5 -2.5 0
v -6.5 -2 0
v -6 -2 0
v -1.5 -3 0
v -2 -3 0
v -2 -2.5 0
v -1.5 -2.5 0
v -2 -3 0
v -2.5 -3 0
v -2.5 -2.5 0
v -2 -2.5 0
v -3 -3 0
v -3.5 -3 0
v -3.5 -2.5 0
v -3 -2.5 0
v -4 -3 0
v -4.5 -3 0
v -4.5 -2.5 0
v -4 -2.5 0
v -4.5 -3 0
v -5 -3 0
v -5 -2.5 0
v -4.5 -2.5 0
v -5.5 -3 0
v -6 -3 0
v -6 -2.5 0
v -5.5 -2.5 0
v -1.5 -3.5 0
v -2 -3.5 0
v -2 -3 0
v -1.5 -3 0
v -2 -3.5 0
v -2.5 -3.5 0
v -2.5 -3 0
v -2 -3 0
v -2.5 -3.5 0
v -3 -3.5 0
v -3 -3 0
v -2.5 -3 0
v -3.5 -3.5 0
v -4 -3.5 0
v -4 -3 0
v -3.5 -3 0
v -5 -3.5 0
v -5.5 -3.5 0
v -5.5 -3 0
v -5 -3 0
v -6 -3.5 0
v -6.5 -3.5 0
v -6.5 -3 0
v -6 -3 0
v -1.5 -4 0
v -2 -4 0
v -2 -3.5 0
v -1.5 -3.5 0
v -2.5 -4 0
v -3 -4 0
v -3 -3.5 0
v -2.5 -3.5 0
v -3 -4 0
v -3.5 -4 0
v -3.5 -3.5 0
v -3 -3.5 0
v -4.5 -4 0
v -5 -4 0
v -5 -3.5 0
v -4.5 -3.5 0
v -2 -4.5 0
v -2.5 -4.5 0
v -2.5 -4 0
v -2 -4 0
v -4 -4.5 0
v -4.5 -4.5 0
v -4.5 -4 0
v -4 -4 0
v -2.5 -5 0
v -3 -5 0
v -3 -4.5 0
v -2.5 -4.5 0
v -3 -5 0
v -3.5 -5 0
v -3.5 -4.5 0
v -3 -4.5 0

# Texture cooridinates (Count = 8)
vt 0.2 0.25
vt 0.3 0.25
vt 0.3 0.3
vt 0.2 0.3
vt 0.1 0.25
vt 0.1 0.3
vt 0 0.25
vt 0 0.3

# Normal
vn 0 0 -1

# Mesh description
g test_map_mesh_0004

# Faces
f 1/1/1 2/2/1 3/3/1 4/4/1
f 5/1/1 6/2/1 7/3/1 8/4/1
f 9/1/1 10/2/1 11/3/1 12/4/1
f 13/5/1 14/1/1 15/4/1 16/6/1
f 17/1/1 18/2/1 19/3/1 20/4/1
f 21/1/1 22/2/1 23/3/1 24/4/1
f 25/1/1 26/2/1 27/3/1 28/4/1
f 29/1/1 30/2/1 31/3/1 32/4/1
f 33/1/1 34/2/1 35/3/1 36/4/1
f 37/5/1 38/1/1 39/4/1 40/6/1
f 41/1/1 42/2/1 43/3/1 44/4/1
f 45/1/1 46/2/1 47/3/1 48/4/1
f 49/1/1 50/2/1 51/3/1 52/4/1
f 53/7/1 54/5/1 55/6/1 56/8/1
f 57/5/1 58/1/1 59/4/1 60/6/1
f 61/7/1 62/5/1 63/6/1 64/8/1
f 65/1/1 66/2/1 67/3/1 68/4/1
f 69/7/1 70/5/1 71/6/1 72/8/1
f 73/7/1 74/5/1 75/6/1 76/8/1
f 77/5/1 78/1/1 79/4/1 80/6/1
f 81/5/1 82/1/1 83/4/1 84/6/1
f 85/7/1 86/5/1 87/6/1 88/8/1
f 89/1/1 90/2/1 91/3/1 92/4/1
f 93/1/1 94/2/1 95/3/1 96/4/1
f 97/1/1 98/2/1 99/3/1 100/4/1
f 101/5/1 102/1/1 103/4/1 104/6/1
f 105/7/1 106/5/1 107/6/1 108/8/1
f 109/7/1 110/5/1 111/6/1 112/8/1
f 113/1/1 114/2/1 115/3/1 116/4/1
f 117/5/1 118/1/1 119/4/1 120/6/1
f 121/5/1 122/1/1 123/4/1 124/6/1
f 125/7/1 126/5/1 127/6/1 128/8/1
f 129/5/1 130/1/1 131/4/1 132/6/1
f 133/7/1 134/5/1 135/6/1 136/8/1
f 137/7/1 138/5/1 139/6/1 140/8/1
f 141/7/1 142/5/1 143/6/1 144/8/1

