# Tiled2Unity generated file. Do not modify by hand.
# Wavefront file for 'test_map_mesh_0002.obj'

# Vertices (Count = 296)
v -12 -1 0
v -13 -1 0
v -13 0 0
v -12 0 0
v -12 -2 0
v -13 -2 0
v -13 -1 0
v -12 -1 0
v -12 -3 0
v -13 -3 0
v -13 -2 0
v -12 -2 0
v -3 -4 0
v -4 -4 0
v -4 -3 0
v -3 -3 0
v -12 -4 0
v -13 -4 0
v -13 -3 0
v -12 -3 0
v -3 -5 0
v -4 -5 0
v -4 -4 0
v -3 -4 0
v -12 -5 0
v -13 -5 0
v -13 -4 0
v -12 -4 0
v -12 -6 0
v -13 -6 0
v -13 -5 0
v -12 -5 0
v -7 -7 0
v -8 -7 0
v -8 -6 0
v -7 -6 0
v -12 -7 0
v -13 -7 0
v -13 -6 0
v -12 -6 0
v -23 -7 0
v -24 -7 0
v -24 -6 0
v -23 -6 0
v -7 -8 0
v -8 -8 0
v -8 -7 0
v -7 -7 0
v -12 -8 0
v -13 -8 0
v -13 -7 0
v -12 -7 0
v -23 -8 0
v -24 -8 0
v -24 -7 0
v -23 -7 0
v -12 -9 0
v -13 -9 0
v -13 -8 0
v -12 -8 0
v -17 -9 0
v -18 -9 0
v -18 -8 0
v -17 -8 0
v -9 -10 0
v -10 -10 0
v -10 -9 0
v -9 -9 0
v -12 -10 0
v -13 -10 0
v -13 -9 0
v -12 -9 0
v -17 -10 0
v -18 -10 0
v -18 -9 0
v -17 -9 0
v -20 -10 0
v -21 -10 0
v -21 -9 0
v -20 -9 0
v -6 -11 0
v -7 -11 0
v -7 -10 0
v -6 -10 0
v -9 -11 0
v -10 -11 0
v -10 -10 0
v -9 -10 0
v -12 -11 0
v -13 -11 0
v -13 -10 0
v -12 -10 0
v -6 -12 0
v -7 -12 0
v -7 -11 0
v -6 -11 0
v -11 -12 0
v -12 -12 0
v -12 -11 0
v -11 -11 0
v -12 -12 0
v -13 -12 0
v -13 -11 0
v -12 -11 0
v -14 -12 0
v -15 -12 0
v -15 -11 0
v -14 -11 0
v -15 -12 0
v -16 -12 0
v -16 -11 0
v -15 -11 0
v -16 -12 0
v -17 -12 0
v -17 -11 0
v -16 -11 0
v -17 -12 0
v -18 -12 0
v -18 -11 0
v -17 -11 0
v -27 -12 0
v -28 -12 0
v -28 -11 0
v -27 -11 0
v -11 -13 0
v -12 -13 0
v -12 -12 0
v -11 -12 0
v -14 -13 0
v -15 -13 0
v -15 -12 0
v -14 -12 0
v -15 -13 0
v -16 -13 0
v -16 -12 0
v -15 -12 0
v -16 -13 0
v -17 -13 0
v -17 -12 0
v -16 -12 0
v -17 -13 0
v -18 -13 0
v -18 -12 0
v -17 -12 0
v -27 -13 0
v -28 -13 0
v -28 -12 0
v -27 -12 0
v -1 -14 0
v -2 -14 0
v -2 -13 0
v -1 -13 0
v -3 -14 0
v -4 -14 0
v -4 -13 0
v -3 -13 0
v -11 -14 0
v -12 -14 0
v -12 -13 0
v -11 -13 0
v -18 -14 0
v -19 -14 0
v -19 -13 0
v -18 -13 0
v -1 -15 0
v -2 -15 0
v -2 -14 0
v -1 -14 0
v -3 -15 0
v -4 -15 0
v -4 -14 0
v -3 -14 0
v -8 -15 0
v -9 -15 0
v -9 -14 0
v -8 -14 0
v -9 -15 0
v -10 -15 0
v -10 -14 0
v -9 -14 0
v -11 -15 0
v -12 -15 0
v -12 -14 0
v -11 -14 0
v -13 -15 0
v -14 -15 0
v -14 -14 0
v -13 -14 0
v -14 -15 0
v -15 -15 0
v -15 -14 0
v -14 -14 0
v -18 -15 0
v -19 -15 0
v -19 -14 0
v -18 -14 0
v -8 -16 0
v -9 -16 0
v -9 -15 0
v -8 -15 0
v -9 -16 0
v -10 -16 0
v -10 -15 0
v -9 -15 0
v -10 -16 0
v -11 -16 0
v -11 -15 0
v -10 -15 0
v -11 -16 0
v -12 -16 0
v -12 -15 0
v -11 -15 0
v -12 -16 0
v -13 -16 0
v -13 -15 0
v -12 -15 0
v -13 -16 0
v -14 -16 0
v -14 -15 0
v -13 -15 0
v -14 -16 0
v -15 -16 0
v -15 -15 0
v -14 -15 0
v -23 -16 0
v -24 -16 0
v -24 -15 0
v -23 -15 0
v -4 -17 0
v -5 -17 0
v -5 -16 0
v -4 -16 0
v -11 -17 0
v -12 -17 0
v -12 -16 0
v -11 -16 0
v -12 -17 0
v -13 -17 0
v -13 -16 0
v -12 -16 0
v -23 -17 0
v -24 -17 0
v -24 -16 0
v -23 -16 0
v -4 -18 0
v -5 -18 0
v -5 -17 0
v -4 -17 0
v -11 -18 0
v -12 -18 0
v -12 -17 0
v -11 -17 0
v -12 -18 0
v -13 -18 0
v -13 -17 0
v -12 -17 0
v -13 -18 0
v -14 -18 0
v -14 -17 0
v -13 -17 0
v -14 -18 0
v -15 -18 0
v -15 -17 0
v -14 -17 0
v -15 -18 0
v -16 -18 0
v -16 -17 0
v -15 -17 0
v -16 -18 0
v -17 -18 0
v -17 -17 0
v -16 -17 0
v -17 -18 0
v -18 -18 0
v -18 -17 0
v -17 -17 0
v -16 -19 0
v -17 -19 0
v -17 -18 0
v -16 -18 0
v -17 -19 0
v -18 -19 0
v -18 -18 0
v -17 -18 0
v -21 -19 0
v -22 -19 0
v -22 -18 0
v -21 -18 0
v -17 -20 0
v -18 -20 0
v -18 -19 0
v -17 -19 0
v -21 -20 0
v -22 -20 0
v -22 -19 0
v -21 -19 0

# Texture cooridinates (Count = 54)
vt 0.2 0.65
vt 0.3 0.65
vt 0.3 0.7
vt 0.2 0.7
vt 0.3 0.75
vt 0.4 0.75
vt 0.4 0.8
vt 0.3 0.8
vt 0.4 0.7
vt 0 0.55
vt 0.1 0.55
vt 0.1 0.6
vt 0 0.6
vt 0.1 0.65
vt 0 0.65
vt 0.3 0.6
vt 0.4 0.6
vt 0.4 0.65
vt 0.6 0.75
vt 0.7 0.75
vt 0.7 0.8
vt 0.6 0.8
vt 0.6 0.7
vt 0.7 0.7
vt 0 0.5
vt 0.1 0.5
vt 0.2 0.5
vt 0.3 0.5
vt 0.3 0.55
vt 0.2 0.55
vt 0.5 0.5
vt 0.6 0.5
vt 0.6 0.55
vt 0.5 0.55
vt 0.7 0.5
vt 0.7 0.55
vt 0 0.45
vt 0.1 0.45
vt 0.2 0.45
vt 0.3 0.45
vt 0.4 0.45
vt 0.5 0.45
vt 0.4 0.5
vt 0.6 0.45
vt 0.7 0.45
vt 0.2 0.35
vt 0.3 0.35
vt 0.3 0.4
vt 0.2 0.4
vt 0.2 0.6
vt 0.1 0.7
vt 0 0.7
vt 0.2 0.3
vt 0.3 0.3

# Normal
vn 0 0 -1

# Mesh description
g test_map_mesh_0002

# Faces
f 1/1/1 2/2/1 3/3/1 4/4/1
f 5/1/1 6/2/1 7/3/1 8/4/1
f 9/1/1 10/2/1 11/3/1 12/4/1
f 13/5/1 14/6/1 15/7/1 16/8/1
f 17/1/1 18/2/1 19/3/1 20/4/1
f 21/3/1 22/9/1 23/6/1 24/5/1
f 25/1/1 26/2/1 27/3/1 28/4/1
f 29/1/1 30/2/1 31/3/1 32/4/1
f 33/5/1 34/6/1 35/7/1 36/8/1
f 37/1/1 38/2/1 39/3/1 40/4/1
f 41/5/1 42/6/1 43/7/1 44/8/1
f 45/3/1 46/9/1 47/6/1 48/5/1
f 49/1/1 50/2/1 51/3/1 52/4/1
f 53/3/1 54/9/1 55/6/1 56/5/1
f 57/1/1 58/2/1 59/3/1 60/4/1
f 61/5/1 62/6/1 63/7/1 64/8/1
f 65/5/1 66/6/1 67/7/1 68/8/1
f 69/1/1 70/2/1 71/3/1 72/4/1
f 73/3/1 74/9/1 75/6/1 76/5/1
f 77/10/1 78/11/1 79/12/1 80/13/1
f 81/5/1 82/6/1 83/7/1 84/8/1
f 85/3/1 86/9/1 87/6/1 88/5/1
f 89/1/1 90/2/1 91/3/1 92/4/1
f 93/3/1 94/9/1 95/6/1 96/5/1
f 97/13/1 98/12/1 99/14/1 100/15/1
f 101/16/1 102/17/1 103/18/1 104/2/1
f 105/19/1 106/20/1 107/21/1 108/22/1
f 109/19/1 110/20/1 111/21/1 112/22/1
f 113/19/1 114/20/1 115/21/1 116/22/1
f 117/19/1 118/20/1 119/21/1 120/22/1
f 121/5/1 122/6/1 123/7/1 124/8/1
f 125/1/1 126/2/1 127/3/1 128/4/1
f 129/23/1 130/24/1 131/20/1 132/19/1
f 133/23/1 134/24/1 135/20/1 136/19/1
f 137/23/1 138/24/1 139/20/1 140/19/1
f 141/23/1 142/24/1 143/20/1 144/19/1
f 145/3/1 146/9/1 147/6/1 148/5/1
f 149/19/1 150/20/1 151/21/1 152/22/1
f 153/19/1 154/20/1 155/21/1 156/22/1
f 157/1/1 158/2/1 159/3/1 160/4/1
f 161/19/1 162/20/1 163/21/1 164/22/1
f 165/23/1 166/24/1 167/20/1 168/19/1
f 169/23/1 170/24/1 171/20/1 172/19/1
f 173/25/1 174/26/1 175/11/1 176/10/1
f 177/27/1 178/28/1 179/29/1 180/30/1
f 181/1/1 182/2/1 183/3/1 184/4/1
f 185/31/1 186/32/1 187/33/1 188/34/1
f 189/32/1 190/35/1 191/36/1 192/33/1
f 193/23/1 194/24/1 195/20/1 196/19/1
f 197/37/1 198/38/1 199/26/1 200/25/1
f 201/38/1 202/39/1 203/27/1 204/26/1
f 205/39/1 206/40/1 207/28/1 208/27/1
f 209/1/1 210/2/1 211/3/1 212/4/1
f 213/41/1 214/42/1 215/31/1 216/43/1
f 217/42/1 218/44/1 219/32/1 220/31/1
f 221/44/1 222/45/1 223/35/1 224/32/1
f 225/5/1 226/6/1 227/7/1 228/8/1
f 229/5/1 230/6/1 231/7/1 232/8/1
f 233/1/1 234/2/1 235/3/1 236/4/1
f 237/46/1 238/47/1 239/48/1 240/49/1
f 241/3/1 242/9/1 243/6/1 244/5/1
f 245/3/1 246/9/1 247/6/1 248/5/1
f 249/50/1 250/16/1 251/2/1 252/1/1
f 253/15/1 254/14/1 255/51/1 256/52/1
f 257/15/1 258/14/1 259/51/1 260/52/1
f 261/15/1 262/14/1 263/51/1 264/52/1
f 265/15/1 266/14/1 267/51/1 268/52/1
f 269/14/1 270/1/1 271/4/1 272/51/1
f 273/12/1 274/50/1 275/1/1 276/14/1
f 277/53/1 278/54/1 279/47/1 280/46/1
f 281/1/1 282/2/1 283/3/1 284/4/1
f 285/19/1 286/20/1 287/21/1 288/22/1
f 289/1/1 290/2/1 291/3/1 292/4/1
f 293/23/1 294/24/1 295/20/1 296/19/1

