# Tiled2Unity generated file. Do not modify by hand.
# Wavefront file for 'test_map_mesh_0002.obj'

# Vertices (Count = 256)
v -22 -1 0
v -23 -1 0
v -23 0 0
v -22 0 0
v -22 -2 0
v -23 -2 0
v -23 -1 0
v -22 -1 0
v -22 -3 0
v -23 -3 0
v -23 -2 0
v -22 -2 0
v -22 -4 0
v -23 -4 0
v -23 -3 0
v -22 -3 0
v -17 -5 0
v -18 -5 0
v -18 -4 0
v -17 -4 0
v -18 -5 0
v -19 -5 0
v -19 -4 0
v -18 -4 0
v -19 -5 0
v -20 -5 0
v -20 -4 0
v -19 -4 0
v -20 -5 0
v -21 -5 0
v -21 -4 0
v -20 -4 0
v -21 -5 0
v -22 -5 0
v -22 -4 0
v -21 -4 0
v -22 -5 0
v -23 -5 0
v -23 -4 0
v -22 -4 0
v -23 -5 0
v -24 -5 0
v -24 -4 0
v -23 -4 0
v -17 -6 0
v -18 -6 0
v -18 -5 0
v -17 -5 0
v -23 -6 0
v -24 -6 0
v -24 -5 0
v -23 -5 0
v -1 -7 0
v -2 -7 0
v -2 -6 0
v -1 -6 0
v -2 -7 0
v -3 -7 0
v -3 -6 0
v -2 -6 0
v -6 -7 0
v -7 -7 0
v -7 -6 0
v -6 -6 0
v -7 -7 0
v -8 -7 0
v -8 -6 0
v -7 -6 0
v -17 -7 0
v -18 -7 0
v -18 -6 0
v -17 -6 0
v -23 -7 0
v -24 -7 0
v -24 -6 0
v -23 -6 0
v -1 -8 0
v -2 -8 0
v -2 -7 0
v -1 -7 0
v -2 -8 0
v -3 -8 0
v -3 -7 0
v -2 -7 0
v -3 -8 0
v -4 -8 0
v -4 -7 0
v -3 -7 0
v -4 -8 0
v -5 -8 0
v -5 -7 0
v -4 -7 0
v -5 -8 0
v -6 -8 0
v -6 -7 0
v -5 -7 0
v -6 -8 0
v -7 -8 0
v -7 -7 0
v -6 -7 0
v -7 -8 0
v -8 -8 0
v -8 -7 0
v -7 -7 0
v -17 -8 0
v -18 -8 0
v -18 -7 0
v -17 -7 0
v -23 -8 0
v -24 -8 0
v -24 -7 0
v -23 -7 0
v -17 -9 0
v -18 -9 0
v -18 -8 0
v -17 -8 0
v -23 -9 0
v -24 -9 0
v -24 -8 0
v -23 -8 0
v -24 -9 0
v -25 -9 0
v -25 -8 0
v -24 -8 0
v -25 -9 0
v -26 -9 0
v -26 -8 0
v -25 -8 0
v -26 -9 0
v -27 -9 0
v -27 -8 0
v -26 -8 0
v -27 -9 0
v -28 -9 0
v -28 -8 0
v -27 -8 0
v -28 -9 0
v -29 -9 0
v -29 -8 0
v -28 -8 0
v -29 -9 0
v -30 -9 0
v -30 -8 0
v -29 -8 0
v -17 -10 0
v -18 -10 0
v -18 -9 0
v -17 -9 0
v -17 -11 0
v -18 -11 0
v -18 -10 0
v -17 -10 0
v -17 -12 0
v -18 -12 0
v -18 -11 0
v -17 -11 0
v -17 -13 0
v -18 -13 0
v -18 -12 0
v -17 -12 0
v -17 -14 0
v -18 -14 0
v -18 -13 0
v -17 -13 0
v -9 -15 0
v -10 -15 0
v -10 -14 0
v -9 -14 0
v -10 -15 0
v -11 -15 0
v -11 -14 0
v -10 -14 0
v -11 -15 0
v -12 -15 0
v -12 -14 0
v -11 -14 0
v -12 -15 0
v -13 -15 0
v -13 -14 0
v -12 -14 0
v -13 -15 0
v -14 -15 0
v -14 -14 0
v -13 -14 0
v -14 -15 0
v -15 -15 0
v -15 -14 0
v -14 -14 0
v -15 -15 0
v -16 -15 0
v -16 -14 0
v -15 -14 0
v -16 -15 0
v -17 -15 0
v -17 -14 0
v -16 -14 0
v -17 -15 0
v -18 -15 0
v -18 -14 0
v -17 -14 0
v -9 -16 0
v -10 -16 0
v -10 -15 0
v -9 -15 0
v -8 -17 0
v -9 -17 0
v -9 -16 0
v -8 -16 0
v -9 -17 0
v -10 -17 0
v -10 -16 0
v -9 -16 0
v -10 -17 0
v -11 -17 0
v -11 -16 0
v -10 -16 0
v -11 -17 0
v -12 -17 0
v -12 -16 0
v -11 -16 0
v -12 -17 0
v -13 -17 0
v -13 -16 0
v -12 -16 0
v -13 -17 0
v -14 -17 0
v -14 -16 0
v -13 -16 0
v -14 -17 0
v -15 -17 0
v -15 -16 0
v -14 -16 0
v -8 -18 0
v -9 -18 0
v -9 -17 0
v -8 -17 0
v -14 -18 0
v -15 -18 0
v -15 -17 0
v -14 -17 0
v -8 -19 0
v -9 -19 0
v -9 -18 0
v -8 -18 0
v -14 -19 0
v -15 -19 0
v -15 -18 0
v -14 -18 0
v -8 -20 0
v -9 -20 0
v -9 -19 0
v -8 -19 0
v -14 -20 0
v -15 -20 0
v -15 -19 0
v -14 -19 0

# Texture cooridinates (Count = 38)
vt 0.2 0.65
vt 0.3 0.65
vt 0.3 0.7
vt 0.2 0.7
vt 0 0.6
vt 0.1 0.6
vt 0.1 0.65
vt 0 0.65
vt 0.1 0.7
vt 0.4 0.65
vt 0.5 0.65
vt 0.5 0.7
vt 0.4 0.7
vt 0.2 0.6
vt 0 0.5
vt 0.1 0.5
vt 0.1 0.55
vt 0 0.55
vt 0.2 0.5
vt 0.2 0.55
vt 0.5 0.5
vt 0.6 0.5
vt 0.6 0.55
vt 0.5 0.55
vt 0.7 0.5
vt 0.7 0.55
vt 0 0.45
vt 0.1 0.45
vt 0.2 0.45
vt 0.3 0.45
vt 0.4 0.45
vt 0.4 0.5
vt 0.3 0.5
vt 0.5 0.45
vt 0.6 0.45
vt 0.7 0.45
vt 0.3 0.6
vt 0.4 0.6

# Normal
vn 0 0 -1

# Mesh description
g test_map_mesh_0002

# Faces
f 1/1/1 2/2/1 3/3/1 4/4/1
f 5/1/1 6/2/1 7/3/1 8/4/1
f 9/1/1 10/2/1 11/3/1 12/4/1
f 13/1/1 14/2/1 15/3/1 16/4/1
f 17/5/1 18/6/1 19/7/1 20/8/1
f 21/7/1 22/1/1 23/4/1 24/9/1
f 25/7/1 26/1/1 27/4/1 28/9/1
f 29/7/1 30/1/1 31/4/1 32/9/1
f 33/7/1 34/1/1 35/4/1 36/9/1
f 37/10/1 38/11/1 39/12/1 40/13/1
f 41/6/1 42/14/1 43/1/1 44/7/1
f 45/1/1 46/2/1 47/3/1 48/4/1
f 49/1/1 50/2/1 51/3/1 52/4/1
f 53/15/1 54/16/1 55/17/1 56/18/1
f 57/16/1 58/19/1 59/20/1 60/17/1
f 61/21/1 62/22/1 63/23/1 64/24/1
f 65/22/1 66/25/1 67/26/1 68/23/1
f 69/1/1 70/2/1 71/3/1 72/4/1
f 73/1/1 74/2/1 75/3/1 76/4/1
f 77/27/1 78/28/1 79/16/1 80/15/1
f 81/28/1 82/29/1 83/19/1 84/16/1
f 85/30/1 86/31/1 87/32/1 88/33/1
f 89/30/1 90/31/1 91/32/1 92/33/1
f 93/30/1 94/31/1 95/32/1 96/33/1
f 97/34/1 98/35/1 99/22/1 100/21/1
f 101/35/1 102/36/1 103/25/1 104/22/1
f 105/1/1 106/2/1 107/3/1 108/4/1
f 109/1/1 110/2/1 111/3/1 112/4/1
f 113/1/1 114/2/1 115/3/1 116/4/1
f 117/14/1 118/37/1 119/2/1 120/1/1
f 121/7/1 122/1/1 123/4/1 124/9/1
f 125/7/1 126/1/1 127/4/1 128/9/1
f 129/7/1 130/1/1 131/4/1 132/9/1
f 133/7/1 134/1/1 135/4/1 136/9/1
f 137/7/1 138/1/1 139/4/1 140/9/1
f 141/7/1 142/1/1 143/4/1 144/9/1
f 145/1/1 146/2/1 147/3/1 148/4/1
f 149/1/1 150/2/1 151/3/1 152/4/1
f 153/1/1 154/2/1 155/3/1 156/4/1
f 157/1/1 158/2/1 159/3/1 160/4/1
f 161/1/1 162/2/1 163/3/1 164/4/1
f 165/5/1 166/6/1 167/7/1 168/8/1
f 169/7/1 170/1/1 171/4/1 172/9/1
f 173/7/1 174/1/1 175/4/1 176/9/1
f 177/7/1 178/1/1 179/4/1 180/9/1
f 181/7/1 182/1/1 183/4/1 184/9/1
f 185/7/1 186/1/1 187/4/1 188/9/1
f 189/7/1 190/1/1 191/4/1 192/9/1
f 193/7/1 194/1/1 195/4/1 196/9/1
f 197/37/1 198/38/1 199/10/1 200/2/1
f 201/1/1 202/2/1 203/3/1 204/4/1
f 205/5/1 206/6/1 207/7/1 208/8/1
f 209/10/1 210/11/1 211/12/1 212/13/1
f 213/7/1 214/1/1 215/4/1 216/9/1
f 217/7/1 218/1/1 219/4/1 220/9/1
f 221/7/1 222/1/1 223/4/1 224/9/1
f 225/7/1 226/1/1 227/4/1 228/9/1
f 229/6/1 230/14/1 231/1/1 232/7/1
f 233/1/1 234/2/1 235/3/1 236/4/1
f 237/1/1 238/2/1 239/3/1 240/4/1
f 241/1/1 242/2/1 243/3/1 244/4/1
f 245/1/1 246/2/1 247/3/1 248/4/1
f 249/1/1 250/2/1 251/3/1 252/4/1
f 253/1/1 254/2/1 255/3/1 256/4/1

