# Tiled2Unity generated file. Do not modify by hand.
# Wavefront file for 'test_map_mesh_0002.obj'

# Vertices (Count = 24)
v -18 -3 0
v -19 -3 0
v -19 -2 0
v -18 -2 0
v -14 -8 0
v -15 -8 0
v -15 -7 0
v -14 -7 0
v -13 -12 0
v -14 -12 0
v -14 -11 0
v -13 -11 0
v -5 -13 0
v -6 -13 0
v -6 -12 0
v -5 -12 0
v -18 -14 0
v -19 -14 0
v -19 -13 0
v -18 -13 0
v -16 -15 0
v -17 -15 0
v -17 -14 0
v -16 -14 0

# Texture cooridinates (Count = 4)
vt 0 0.8
vt 0.1 0.8
vt 0.1 0.85
vt 0 0.85

# Normal
vn 0 0 -1

# Mesh description
g test_map_mesh_0002

# Faces
f 1/1/1 2/2/1 3/3/1 4/4/1
f 5/1/1 6/2/1 7/3/1 8/4/1
f 9/1/1 10/2/1 11/3/1 12/4/1
f 13/1/1 14/2/1 15/3/1 16/4/1
f 17/1/1 18/2/1 19/3/1 20/4/1
f 21/1/1 22/2/1 23/3/1 24/4/1

